# xmcd
#
# Track frame offsets:
#   150
#   14594
#   30986
#   48547
#   67191
#   82098
#   102083
#   116889
#   137567
#   154702
#   172652
#   185259
#   202899
#
# Disc length: 2878 seconds
#
# Revision: 0
# Processed by: cddbd v1.5.2PL0 Copyright (c) Steve Scherf et al.
# Submitted via: uFREEDB ActiveX Control 1.5
#
DISCID=a70b3c0d
DTITLE=JONAS BROTHERS - LINES, VINES AND TRYING TIMES
DYEAR=2009
DGENRE=Pop
TTITLE0=WORLD WAR III
TTITLE1=PARANOID
TTITLE2=FLY WITH ME
TTITLE3=POISON IVY
TTITLE4=HEY BABY
TTITLE5=BEFORE THE STORM
TTITLE6=WHAT DID I  DO TO YOUR HEART
TTITLE7=MUCH BETTER
TTITLE8=BLACK EYES
TTITLE9=DON'T CHARGE ME FOR THE CRIME
TTITLE10=TURN RIGHT
TTITLE11=DON'T SPEAK
TTITLE12=KEEP IT REAL
EXTD=
EXTT0=
EXTT1=
EXTT2=
EXTT3=
EXTT4=
EXTT5=
EXTT6=
EXTT7=
EXTT8=
EXTT9=
EXTT10=
EXTT11=
EXTT12=
PLAYORDER=
